<?xml version="1.0" encoding="UTF-8" standalone="no"?>
<!-- Generator: Adobe Illustrator 16.0.0, SVG Export Plug-In . SVG Version: 6.00 Build 0)  -->

<svg
   xmlns:dc="http://purl.org/dc/elements/1.1/"
   xmlns:cc="http://creativecommons.org/ns#"
   xmlns:rdf="http://www.w3.org/1999/02/22-rdf-syntax-ns#"
   xmlns:svg="http://www.w3.org/2000/svg"
   xmlns="http://www.w3.org/2000/svg"
   xmlns:sodipodi="http://sodipodi.sourceforge.net/DTD/sodipodi-0.dtd"
   xmlns:inkscape="http://www.inkscape.org/namespaces/inkscape"
   version="1.1"
   id="Layer_1"
   x="0px"
   y="0px"
   width="1000"
   height="475.707"
   viewBox="0 0 1000 475.70703"
   enable-background="new 0 0 1000 580.246"
   xml:space="preserve"
   sodipodi:docname="CNN_(Print).svg"
   inkscape:version="0.91 r13725"><metadata
     id="metadata1622"><rdf:RDF><cc:Work
         rdf:about=""><dc:format>image/svg+xml</dc:format><dc:type
           rdf:resource="http://purl.org/dc/dcmitype/StillImage" /><dc:title /></cc:Work></rdf:RDF></metadata><defs
     id="defs1620" /><sodipodi:namedview
     pagecolor="#ffffff"
     bordercolor="#666666"
     borderopacity="1"
     objecttolerance="10"
     gridtolerance="10"
     guidetolerance="10"
     inkscape:pageopacity="0"
     inkscape:pageshadow="2"
     inkscape:window-width="1680"
     inkscape:window-height="931"
     id="namedview1618"
     showgrid="false"
     inkscape:zoom="0.602"
     inkscape:cx="229.45652"
     inkscape:cy="205.13498"
     inkscape:window-x="0"
     inkscape:window-y="1"
     inkscape:window-maximized="1"
     inkscape:current-layer="Layer_1" /><path
     style="stroke-width:1.04860163;fill:#ec1c2e;fill-opacity:1"
     d="M 418.81055 0.009765625 C 374.45589 -0.66021818 335.08984 35.199525 335.08984 87.095703 L 335.08984 320.78711 C 335.13493 329.199 328.85204 336.66016 319.70508 336.66016 L 246.65625 336.66016 C 88.584796 336.8489 102.70963 134.58041 237.25781 134.39062 C 297.07214 134.30572 317.97852 134.39062 317.97852 134.39062 L 317.97852 77.71875 L 234.38867 77.71875 C 182.00938 77.803413 142.35493 97.750166 115.68164 127.48828 C 89.007669 157.22715 75.351785 196.83119 75.373047 236.18945 C 75.393786 274.08004 88.317291 313.40519 115.3125 343.20898 C 142.30771 373.01277 183.35354 393.39453 240.08203 393.39453 L 377.96094 393.39453 C 385.93212 393.39453 392.68945 386.64329 392.68945 378.76953 L 392.68945 93.261719 C 392.6018 78.331542 400.34571 66.328528 412.79688 62.355469 L 412.79883 62.355469 C 424.8772 58.512396 438.14264 63.517617 446.13867 74.890625 L 446.17383 74.941406 L 446.20508 74.994141 C 465.58156 106.7446 513.99802 184.63267 557.73047 254.84375 C 579.59669 289.94928 600.29342 323.13841 615.60742 347.6875 C 623.26445 359.96202 629.57638 370.07682 634.01562 377.19141 C 638.42013 384.25033 640.86758 388.17148 641.14062 388.61523 C 644.36586 393.17301 648.42509 394.88568 651.80664 393.82031 L 651.80859 393.82031 L 651.8125 393.81836 C 653.73095 393.22218 655.2396 391.87078 656.36914 389.64648 C 657.49868 387.42218 658.16797 384.33336 658.16797 380.62305 L 658.16797 93.302734 C 658.12087 78.419981 665.81703 66.391808 678.31055 62.441406 C 690.31466 58.592522 703.62054 63.598128 711.53711 74.982422 L 711.56836 75.027344 L 711.5957 75.074219 C 731.01532 106.80449 779.45293 184.69314 823.19531 254.9043 C 866.91269 325.07533 906.00102 387.67733 906.61328 388.65234 C 906.61528 388.65434 906.61619 388.6562 906.61719 388.6582 C 909.7785 393.18732 914.09461 394.99505 917.69922 393.85938 C 919.65105 393.2421 921.21052 391.86289 922.37305 389.63672 C 923.53557 387.41054 924.23047 384.34346 924.23047 380.66602 L 924.23047 1.7792969 L 924.23047 1.7597656 L 867.05078 1.7597656 L 867.05078 223.01562 C 867.05078 223.01562 831.64295 162.9721 771.28125 59.339844 C 712.22505 -42.183667 600.77557 -0.22228061 600.73047 87.136719 L 600.73047 222.97461 C 600.73047 222.97461 566.17147 162.88811 505.84961 59.255859 C 481.84184 18.028548 449.15847 0.4681756 418.81055 0.009765625 z M 244.71875 1.7597656 C -83.857429 1.7188656 -80.740295 469.83881 249.14453 470.05273 L 378.04297 470.05273 C 433.51504 470.09258 469.1358 437.19218 469.0918 376.55469 L 469.0918 257.98242 C 469.0918 257.98242 541.38504 377.84324 569.75391 424.75977 C 618.01999 504.53319 734.81899 488.84768 734.52539 389.20117 L 734.52539 258.06641 C 734.52539 258.06641 806.8159 377.88278 835.22461 424.86328 C 883.4907 504.61258 1000.2968 488.91086 1000 389.24023 L 1000 1.7597656 L 942.9082 1.7597656 L 942.9082 380.66211 L 942.9082 380.66602 C 942.94809 398.571 932.91132 408.57832 923.34766 411.60156 L 923.3418 411.60352 C 911.67649 415.3222 898.98659 410.34575 891.0957 399.04297 L 891.06836 399.00391 L 891.04297 398.96484 C 889.41108 396.35821 734.68994 148.59328 696.00586 85.292969 C 692.79652 80.735515 688.09505 78.863015 683.92383 80.181641 C 679.59299 81.568971 676.83984 86.153138 676.83984 93.294922 L 676.83984 380.57617 L 676.83984 380.58008 C 676.88518 398.55804 667.01837 408.53599 657.49609 411.60156 L 657.49023 411.60352 L 657.48438 411.60547 C 645.98998 415.2176 633.5017 410.25053 625.66016 398.95703 L 625.64062 398.92969 L 625.62305 398.90234 C 625.31038 398.41633 622.81413 394.42219 618.34961 387.27734 C 613.88508 380.13249 607.55232 369.99209 599.87695 357.69531 C 584.52623 333.10176 563.80824 299.88481 541.93359 264.77148 C 498.20482 194.57777 449.88987 116.85284 430.57422 85.208984 C 427.36851 80.658692 422.62427 78.819481 418.44531 80.142578 L 418.44531 80.140625 C 414.06587 81.530387 411.28617 86.113769 411.32617 93.199219 L 411.32617 93.205078 L 411.32617 378.76758 C 411.32617 397.09519 396.30214 412.02734 377.96094 412.02734 L 240.08008 412.02734 C 177.34693 412.02734 131.41109 389.25492 101.27539 355.85156 C 71.139695 322.4482 56.781181 278.51316 56.738281 236.18945 C 56.695388 192.27465 71.903998 148.07037 101.75586 114.77539 C 131.60772 81.480399 176.14099 59.169094 234.3457 59.083984 L 234.34766 59.083984 L 317.97852 59.083984 L 317.97852 1.7597656 L 244.71875 1.7597656 z "
     id="path1607" /></svg>