<?xml version="1.0" encoding="UTF-8"?>
<svg width="60px" height="60px" viewBox="0 0 60 60" version="1.1" xmlns="http://www.w3.org/2000/svg" xmlns:xlink="http://www.w3.org/1999/xlink">
    <!-- Generator: Sketch 45.2 (43514) - http://www.bohemiancoding.com/sketch -->
    <title>Page 1</title>
    <desc>Created with Sketch.</desc>
    <defs></defs>
    <g id="Symbols" stroke="none" stroke-width="1" fill="none" fill-rule="evenodd">
        <g id="TGAM-logo-square">
            <g id="Page-1">
                <g id="Group-2">
                    <polygon id="Fill-1" fill="#DA161F" points="0 60.0001835 60 60.0001835 60 0.000183486239 0 0.000183486239"></polygon>
                    <g id="Group-34" transform="translate(1.834862, 1.881835)" fill="#FFFFFF">
                        <path d="M10.9031009,0.17506422 L10.9031009,4.00001835 C10.6001651,4.01891743 10.3541101,4.07579817 10.0509908,4.09451376 L9.38805505,1.67084404 C9.19869725,1.0273578 9.06622018,0.856715596 8.25190826,0.856715596 L6.8886055,0.856715596 L6.8886055,12.3128624 L8.68768807,12.3128624 L8.68768807,12.9946972 L2.53355963,12.9946972 L2.53355963,12.3128624 L4.31374312,12.3128624 L4.31374312,0.856899083 L2.98805505,0.856899083 C2.23044037,0.856899083 2.0032844,0.970477064 1.81411009,1.67102752 L1.1513578,4.09469725 C0.848605505,4.07579817 0.602366972,4.01910092 0.299431193,4.00020183 L0.431908257,0.175247706 L10.9031009,0.175247706 L10.9031009,0.17506422 Z" id="Fill-2"></path>
                        <polygon id="Fill-4" points="23.0214312 12.9949174 17.4544587 12.9949174 17.4544587 12.3130826 18.7421651 12.3130826 18.7421651 7.08666055 14.8603303 7.08666055 14.8603303 12.3130826 16.1667523 12.3130826 16.1667523 12.9949174 10.8271193 12.9949174 10.8271193 12.3130826 12.2852844 12.3130826 12.2852844 0.85693578 10.7515229 0.85693578 10.7515229 0.175100917 16.1669358 0.175100917 16.1669358 0.85693578 14.8605138 0.85693578 14.8605138 6.10188991 18.7423486 6.10188991 18.7423486 0.85693578 17.4546422 0.85693578 17.4546422 0.175100917 22.6238165 0.175100917 22.6238165 0.85693578 21.317211 0.85693578 21.317211 12.3130826 23.0214312 12.3130826"></polygon>
                        <path d="M32.2809358,9.03706422 L32.1482752,12.9948624 L22.8132294,12.9948624 L22.8132294,12.3130275 L24.4414862,12.3130275 L24.4414862,0.856880734 L23.2486422,0.856880734 L23.2486422,0.175045872 L31.731945,0.175045872 L31.731945,3.96220183 C31.4290092,4.00018349 31.1824037,4.00018349 30.8987339,4.03779817 L30.2357982,1.78458716 C30.0275413,1.12201835 29.7246055,0.856880734 29.0238716,0.856880734 L27.0167156,0.856880734 L27.0167156,6.04495413 L30.2926789,6.04495413 L30.2926789,7.1053211 L27.0167156,7.1053211 C27.0167156,7.31357798 26.9978165,8.65816514 26.9978165,9.39651376 C26.9789174,10.5704587 26.9789174,11.8770642 26.9789174,12.312844 L29.5539633,12.312844 C30.2354312,12.312844 30.6524954,11.8957798 30.9172661,11.0438532 L31.4477248,8.8853211 L32.2809358,9.03706422 Z" id="Fill-6"></path>
                        <path d="M10.3917064,26.6748624 L9.21776147,26.7697248 C8.44143119,27.0346789 7.07812844,27.3377982 6.32051376,27.3377982 C3.19647706,27.3377982 0.734825688,25.2546789 0.734825688,20.9183486 C0.734825688,17.566789 2.87445872,14.0831193 6.39647706,14.0831193 C8.49831193,14.0831193 9.69097248,14.5754128 10.0698716,14.8214679 L10.0698716,18.2299083 L9.16106422,18.4376147 C8.59280734,16.2790826 8.02473394,14.9161468 6.43409174,14.9161468 C4.25666055,14.9161468 3.49922936,17.5856881 3.49922936,20.5583486 C3.49922936,25.0844037 4.69207339,26.4286239 6.47188991,26.4286239 C6.98326606,26.4286239 7.45666055,26.2959633 7.89207339,26.1636697 L7.89207339,22.6416514 L6.58546789,22.6416514 L6.58546789,21.9598165 L10.3915229,21.9598165 L10.3915229,26.6748624 L10.3917064,26.6748624 Z" id="Fill-8"></path>
                        <path d="M11.0921284,26.4286606 L12.4556147,26.4286606 L12.4556147,14.9725138 L11.1490092,14.9725138 L11.1490092,14.2906789 L16.4510275,14.2906789 L16.4510275,14.9726972 L15.030844,14.9726972 C15.030844,25.0462752 15.030844,26.3152661 14.9548807,26.428844 L16.8295596,26.428844 C17.5680917,26.428844 17.9279083,26.1066422 18.2497431,25.1409541 L18.9691927,22.9448073 C19.2532294,22.982422 19.4802018,22.982422 19.7646055,23.0202202 L19.4802018,27.1104954 L11.0921284,27.1104954 L11.0921284,26.4286606 Z" id="Fill-10"></path>
                        <path d="M27.7174312,20.729211 C27.7174312,15.6545321 26.1647706,14.9725138 25.1420183,14.9725138 C23.627156,14.9725138 22.5856881,16.3550826 22.5856881,20.6908624 C22.5856881,25.4442569 24.0058716,26.4475596 25.1420183,26.4475596 C26.4486239,26.4475596 27.7174312,25.2923303 27.7174312,20.729211 M19.8587156,20.8618716 C19.8587156,17.2448073 21.4686239,14.0829725 25.1420183,14.0829725 C28.4555963,14.0829725 30.4438532,16.4875596 30.4438532,20.5585688 C30.4438532,24.175633 28.8154128,27.3378349 25.1420183,27.3378349 C22.0368807,27.3378349 19.8587156,25.1980183 19.8587156,20.8618716" id="Fill-12"></path>
                        <path d="M36.3137064,20.9181468 L34.8179266,20.9181468 L34.8179266,25.9928257 C34.8179266,26.2583303 34.8179266,26.4286055 35.0074679,26.4286055 L36.2949908,26.4286055 C37.1848991,26.4286055 37.9236147,25.9363119 37.9236147,23.7207156 C37.9234312,22.1109908 37.5443486,20.9181468 36.3137064,20.9181468 L36.3137064,20.9181468 Z M34.8179266,20.1234679 L36.4083853,20.1234679 C37.3171927,20.1234679 37.8285688,19.0442018 37.8285688,17.7941101 C37.8285688,15.7298899 37.0904037,14.9726422 36.1434312,14.9726422 L34.8179266,14.9726422 L34.8179266,20.1234679 Z M36.2760917,27.1104404 L30.8790275,27.1104404 L30.8790275,26.4286055 L32.2236147,26.4286055 L32.2236147,14.9724587 L30.8790275,14.9724587 L30.8790275,14.2906239 L36.1621468,14.2906239 C38.8507706,14.2906239 40.2711376,15.5408991 40.2711376,17.6045688 C40.2711376,18.6649358 39.2300367,20.0286055 37.8096697,20.4447523 L37.8096697,20.5585138 C39.399945,20.9183303 40.5551743,22.2060367 40.5551743,23.7397982 C40.5551743,25.728055 38.9645321,27.1104404 36.2760917,27.1104404 L36.2760917,27.1104404 Z" id="Fill-14"></path>
                        <path d="M50.2878532,23.1526972 L50.1553761,27.1104954 L40.8201468,27.1104954 L40.8201468,26.4286606 L42.4484037,26.4286606 L42.4484037,14.9725138 L41.2555596,14.9725138 L41.2555596,14.2906789 L49.7383119,14.2906789 L49.7383119,18.0780183 C49.4357431,18.116367 49.1893211,18.116367 48.9051009,18.1539817 L48.2425321,15.9007706 C48.0346422,15.2376514 47.731156,14.9726972 47.0306055,14.9726972 L45.023633,14.9726972 L45.023633,20.1611376 L48.2995963,20.1611376 L48.2995963,21.2215046 L45.023633,21.2215046 C45.023633,21.429945 45.0047339,22.7739817 45.0047339,23.5123303 C44.9856514,24.6862752 44.9856514,25.9928807 44.9856514,26.4286606 L47.5612477,26.4286606 C48.2425321,26.4286606 48.6590459,26.0117798 48.924,25.1598532 L49.4548257,23.0013211 L50.2878532,23.1526972 Z" id="Fill-16"></path>
                        <path d="M4.84365138,31.0004037 L3.49943119,35.7150826 L6.18805505,35.7150826 L4.84365138,31.0004037 Z M3.31025688,36.3971009 L2.6473211,38.7068257 C2.57154128,39.0859083 2.55282569,39.3697615 2.55282569,39.616 C2.55282569,40.4303119 2.89374312,40.4490275 4.01062385,40.5442569 L4.12438532,40.5442569 L4.12438532,41.2259083 L0.0530091743,41.2259083 L0.0530091743,40.562789 L0.0720917431,40.562789 C0.905486239,40.562789 1.3407156,39.8807706 1.6060367,39.0666422 C1.6060367,39.0666422 4.40823853,30.3382018 4.88163303,28.4064587 L6.64273394,28.4064587 L10.3542936,40.5442569 L11.4522752,40.5442569 L11.4522752,41.2259083 L6.18823853,41.2259083 L6.18823853,40.5442569 L7.58952294,40.5442569 L6.3966789,36.3971009 L3.31025688,36.3971009 Z" id="Fill-18"></path>
                        <path d="M21.7530642,29.0881284 C20.8251743,29.107211 20.3141651,29.3152844 20.3141651,30.1484954 L20.3141651,41.2257431 L19.3103119,41.2257431 C17.3222385,37.9497798 15.3906789,34.6552844 13.4215046,31.360422 L13.4215046,39.2938165 C13.4215046,40.0892294 13.516367,40.5250092 15.0877431,40.5628073 L15.0877431,41.2257431 L11.3574679,41.2257431 L11.3574679,40.5442752 C11.9444404,40.5250092 12.5126972,40.3738165 12.5126972,39.2752844 L12.5126972,30.0163853 C12.1906789,29.5993211 11.7928807,29.1831743 11.2437064,29.0121651 L11.2437064,28.4064771 L14.5954495,28.4064771 C16.2048073,31.1330826 17.8143486,33.8222569 19.4426055,36.5295963 L19.4426055,30.1484954 C19.4426055,29.447945 19.2158165,29.0881284 17.8712294,29.0881284 L17.8712294,28.4064771 L21.7530642,28.4064771 L21.7530642,29.0881284 Z" id="Fill-20"></path>
                        <path d="M25.653578,29.0881284 L25.653578,39.9756514 C25.653578,40.3352844 25.7862385,40.5439083 26.0888073,40.5439083 C28.6642202,40.5439083 29.819633,38.9538165 29.819633,34.8062936 C29.8194495,30.7919817 28.3612844,29.0881284 25.653578,29.0881284 M26.7893578,41.2257431 L21.6390826,41.2257431 L21.6390826,40.5442752 L23.0590826,40.5442752 L23.0590826,29.0881284 L21.5445872,29.0881284 L21.5445872,28.4064771 L26.6194495,28.4064771 C30.2357798,28.4064771 32.7163303,31.0006055 32.7163303,34.6552844 C32.7163303,38.2527156 30.5390826,41.2257431 26.7893578,41.2257431" id="Fill-22"></path>
                        <path d="M9.23684404,55.3413578 L9.23684404,54.6593394 L10.4865688,54.6593394 L9.99445872,44.9072294 C8.91482569,47.7857615 7.87354128,50.5688807 6.81317431,53.4663119 L6.39647706,53.6553028 C5.31721101,50.5883303 4.16198165,47.4635596 3.0827156,44.3960367 L3.0827156,44.3011743 C3.00675229,46.5543853 2.93097248,47.9942018 2.85555963,50.2090642 C2.7986789,51.7998899 2.74179817,53.4663119 2.74179817,53.6934679 C2.74179817,54.0908991 2.9880367,54.6402569 4.5973945,54.6778716 L4.5973945,55.3409908 L0.10987156,55.3409908 L0.10987156,54.7154862 C1.24620183,54.6589725 1.68143119,54.2231927 1.71959633,53.6934679 C1.89005505,51.3077798 2.13629358,47.0850275 2.24987156,44.8127339 L2.24987156,44.6800734 C2.24987156,43.4114495 2.15500917,43.2030092 0.848587156,43.2030092 L0.848587156,42.5211743 L5.07097248,42.5211743 C5.82840367,44.7743853 6.66161468,47.0850275 7.45702752,49.3378716 L9.88069725,42.5211743 L13.8759266,42.5211743 L13.8759266,43.2030092 L12.4181284,43.2030092 L13.0995963,54.659156 L14.4441835,54.659156 L14.4441835,55.3411743 L9.23684404,55.3411743 L9.23684404,55.3413578 Z" id="Fill-24"></path>
                        <path d="M18.6849541,45.115578 L17.3409174,49.8306239 L20.0295413,49.8306239 L18.6849541,45.115578 Z M17.1517431,50.5122752 L16.4888073,52.822367 C16.4130275,53.2014495 16.3943119,53.4851193 16.3943119,53.7311743 C16.3943119,54.5456697 16.7352294,54.5643853 17.8521101,54.6594312 L17.9656881,54.6594312 L17.9656881,55.3412661 L13.8944954,55.3412661 L13.8944954,54.6781468 L13.913578,54.6781468 C14.7466055,54.6781468 15.1820183,53.9963119 15.4473394,53.1821835 C15.4473394,53.1821835 18.2497248,44.4537431 18.7231193,42.5214495 L20.4842202,42.5214495 L24.1954128,54.6594312 L25.2937615,54.6594312 L25.2937615,55.3412661 L20.0297248,55.3412661 L20.0297248,54.6594312 L21.4310092,54.6594312 L20.2381651,50.5122752 L17.1517431,50.5122752 Z" id="Fill-26"></path>
                        <polygon id="Fill-28" points="28.9670826 54.6593761 28.9670826 43.2030459 30.141211 43.2030459 30.141211 42.521578 25.0094679 42.521578 25.0094679 43.2030459 26.2026789 43.2030459 26.2026789 54.6593761 25.0474495 54.6593761 25.0474495 55.3413945 30.141211 55.3413945 30.141211 54.6593761"></polygon>
                        <path d="M38.6429358,51.1756514 L37.9234862,53.3717982 C37.6014679,54.3373028 37.2414679,54.6595046 36.5033028,54.6595046 L34.6286239,54.6595046 C34.7045872,54.5459266 34.7045872,53.2771193 34.7045872,43.2033578 L36.1247706,43.2033578 L36.1247706,42.5215229 L30.8227523,42.5215229 L30.8227523,43.2033578 L32.1293578,43.2033578 L32.1293578,54.6595046 L30.8227523,54.6595046 L30.8227523,55.3415229 L39.153945,55.3415229 L39.4385321,51.2510642 C39.153945,51.2132661 38.9269725,51.2132661 38.6429358,51.1756514" id="Fill-30"></path>
                        <path d="M42.5353945,52.7857982 C42.5353945,52.7857982 42.195578,52.6823119 42.1469541,53.0681835 C42.1271376,53.2287339 42.1838349,53.3667156 42.3653028,53.5096514 C42.4010826,53.5373578 42.4627339,53.5577248 42.5071376,53.561578 C43.1928257,53.6179083 43.9964954,52.4199266 44.5120917,51.5267156 C44.748422,51.1182752 44.8364954,50.9828624 44.9462202,50.9828624 C44.9950275,50.9828624 45.1867706,50.9632294 45.3974128,51.3368073 C45.6797982,51.8314862 47.0931927,53.2441468 48.8939266,52.8560734 C48.9658532,52.6790092 48.6478716,52.5377248 48.4344771,52.4314862 C48.4344771,52.4314862 47.6935596,51.8314862 48.6478716,51.5496514 C49.6010826,51.3368073 50.0597982,51.6900183 50.8731927,51.0182752 C50.9078716,50.807633 50.4478716,50.7010275 50.4478716,50.7010275 C50.4478716,50.7010275 49.8829174,50.3487339 51.5434679,49.8538716 C52.3570459,49.641211 52.3570459,49.4984587 52.2164954,49.3942385 C52.0746606,49.2881835 51.6838349,49.1465321 52.2500734,48.7580917 C52.8519083,48.3698349 53.2392477,47.8399266 53.2047523,47.6624954 C53.0979633,47.521578 52.8519083,47.5575413 52.5324587,47.734422 C52.1801651,47.9103853 51.7214495,47.8048807 51.4742936,47.4153394 C51.2264037,47.0270826 50.9794312,47.0977248 50.662367,47.3448807 C50.3425505,47.5927706 49.7075046,47.9448807 49.4251193,47.3448807 C49.2476881,46.674055 49.3190642,46.8502018 49.8124587,45.9320367 C50.3073211,45.0136881 50.4135596,44.2716697 50.4135596,44.1300183 C50.4135596,43.9900183 50.3421835,43.9186422 49.8827339,44.1300183 C49.4935596,44.2366239 49.4590642,42.2593761 49.4249358,41.9762569 C49.4249358,41.9762569 49.4249358,41.4456147 49.1062202,41.9056147 C48.8596147,42.2228624 47.8697064,43.1771743 47.5522752,43.2828624 C47.2353945,43.3881835 46.7763119,43.1050642 46.8454862,42.7173578 C46.8454862,42.3281835 46.5979633,42.4692844 46.4911743,42.7173578 C46.3862202,42.9652477 45.6432844,45.3670826 45.4682385,45.508367 C45.2909908,45.6496514 45.1489725,46.001578 44.8322752,45.4023119 C44.5142936,44.8017615 43.9607156,43.3769908 43.441633,44.0828624 C43.3003486,43.941945 42.3941101,42.7173578 41.6530092,42.6817615 C41.5467706,42.8237798 41.7236514,43.1771743 41.8649358,43.2828624 C42.0060367,43.4599266 42.0060367,43.954422 41.8649358,44.3067156 C41.7234679,44.6604771 41.7234679,45.1191927 41.8996147,45.5435963 C42.0058532,45.7558899 41.8649358,46.1091009 41.2642018,46.1795596 C40.6631009,46.2505688 40.768789,46.4265321 41.0166789,46.7443303 C41.2642018,47.0624954 42.1825505,47.8399266 42.3939266,48.1223119 C42.6056697,48.4057982 42.3581468,48.7580917 41.9341101,48.7931376 C41.5100734,48.8285505 41.1231009,48.6874495 41.0166789,48.934789 C40.9818165,49.1817615 41.3346606,49.0755229 41.4766789,49.2881835 C41.4766789,49.2881835 42.2526422,50.700844 43.2779633,50.6302018 C44.3014495,50.5586422 44.348422,50.6979083 44.2308073,51.1245138 C44.128055,51.4960734 43.302367,52.6958899 42.5353945,52.7857982" id="Fill-32"></path>
                    </g>
                </g>
            </g>
        </g>
    </g>
</svg>