<svg xmlns="http://www.w3.org/2000/svg" viewBox="0 0 40 40" height="40" width="40" xmlns:v="https://vecta.io/nano"><path d="M39.5.5H.5v39h39z" fill="#ffcd05" stroke="#191919"/><path d="M19.955 12.373c-.417.468-.52 1.65-.52 3.465v14.134h-.495l-6.677-14.93v9.623c0 2.282.078 3.107.286 3.5.235.413 1.566 1.128 2.27 1.347v.275H9.2v-.275c.573-.192 1.957-.907 2.2-1.32.2-.385.287-1.238.287-3.382v-9.815c0-1.128-.182-1.924-.495-2.365-.366-.522-1.357-1.074-2.192-1.346V11h3.52l6.34 14.46V16c0-1.98-.183-3.215-.522-3.603-.573-.605-1.565-.988-2.112-1.125V11h5.686v.274c-.523.137-1.382.466-1.957 1.098m12.92 3.52c0 3.74-2.555 5.28-5.086 5.28h-1.46V27.8c0 .606.182.633.6.907a8.75 8.75 0 0 0 1.905.797v.275H22v-.275c.4-.082 1.512-.577 1.904-.797s.6-.302.6-.907V12.98c0-.608-.184-.7-.6-.9-.363-.193-1.46-.688-1.904-.797V11h6.232c2.948-.001 4.644 2.06 4.644 4.892m-5.503-4.398H26.33v9.155h1.017c2.4 0 3.444-2.2 3.444-4.5-.001-2.336-.8-4.645-3.418-4.645" fill="#231f20"/></svg>
