<?xml version="1.0" encoding="utf-8"?>
<!-- Generator: Adobe Illustrator 16.0.0, SVG Export Plug-In . SVG Version: 6.00 Build 0)  -->
<!DOCTYPE svg PUBLIC "-//W3C//DTD SVG 1.1//EN" "http://www.w3.org/Graphics/SVG/1.1/DTD/svg11.dtd">
<svg version="1.1" id="Layer_1" xmlns="http://www.w3.org/2000/svg" xmlns:xlink="http://www.w3.org/1999/xlink" x="0px" y="0px"
	 width="205.424px" height="115.184px" viewBox="0 0 205.424 115.184" enable-background="new 0 0 205.424 115.184"
	 xml:space="preserve">
<polygon points="67.363,88.896 67.363,114.315 61.196,114.315 51.813,99.194 51.813,114.315 45.711,114.315 45.711,88.896 
	51.847,88.896 61.265,104.049 61.265,88.896 "/>
<polygon points="81.894,108.792 81.894,103.823 93.718,103.823 93.718,98.619 81.894,98.619 81.894,94.414 94.778,94.414 
	94.778,88.828 75.475,88.828 75.475,114.315 95.053,114.315 95.053,108.792 "/>
<polygon points="126.698,88.896 123.069,104.146 119.283,88.896 113.444,88.896 109.603,103.945 106.101,88.896 99.64,88.896 
	106.373,114.315 112.62,114.315 116.317,99.237 120.069,114.315 126.21,114.315 133.056,88.896 "/>
<path d="M157.853,102.916c-0.617-0.931-1.365-1.688-2.213-2.247c-0.836-0.553-1.688-0.984-2.547-1.212
	c-1.533-0.402-7.254-1.941-7.757-2.176c-0.546-0.259-0.763-0.481-0.854-0.623c-0.129-0.215-0.191-0.515-0.191-0.891
	c0-0.417,0.084-0.759,0.252-1.011c0.189-0.289,0.425-0.518,0.716-0.706c0.3-0.192,0.638-0.33,1.009-0.41
	c0.395-0.082,0.797-0.123,1.19-0.123c0.622,0,1.201,0.057,1.728,0.157c0.489,0.099,0.931,0.275,1.311,0.514
	c0.357,0.229,0.645,0.536,0.865,0.938c0.461,0.626,0.428,2.084,0.428,2.084h6.191c0,0,0.199-2.354-0.864-4.377
	c-0.567-1.057-1.353-1.935-2.328-2.619c-0.962-0.668-2.069-1.158-3.3-1.459c-1.205-0.293-2.482-0.438-3.791-0.438
	c-1.137,0-2.283,0.152-3.412,0.462c-1.148,0.313-2.188,0.799-3.1,1.446c-0.925,0.654-1.681,1.483-2.254,2.464
	c-0.578,1-0.871,2.187-0.871,3.521c0,1.2,0.233,2.244,0.695,3.104c0.452,0.847,1.059,1.563,1.803,2.128
	c0.717,0.553,1.545,1.003,2.449,1.353c0.891,0.341,1.803,0.624,2.73,0.859c0.877,0.245,1.77,0.479,2.635,0.686
	c0.834,0.198,1.595,0.428,2.253,0.693c0.617,0.245,1.116,0.555,1.491,0.911c0.316,0.313,0.47,0.715,0.47,1.229
	c0,0.497-0.118,0.886-0.364,1.191c-0.272,0.342-0.605,0.6-1.016,0.798c-0.43,0.203-0.898,0.343-1.389,0.411
	c-0.521,0.076-1.014,0.113-1.473,0.113c-0.664,0-1.311-0.081-1.923-0.233c-0.601-0.16-1.125-0.396-1.557-0.706
	c-0.421-0.305-0.767-0.71-1.022-1.198c-0.394-0.532-0.389-2.368-0.389-2.368h-6.219c0,0-0.184,2.77,0.871,4.661
	c0.604,1.16,1.436,2.136,2.461,2.891c1.019,0.747,2.207,1.301,3.531,1.646c1.301,0.342,2.664,0.519,4.039,0.519
	c1.709,0,3.236-0.207,4.547-0.607c1.328-0.405,2.453-0.982,3.357-1.722c0.913-0.741,1.617-1.638,2.078-2.663
	c0.46-1.021,0.693-2.146,0.693-3.336C158.812,105.109,158.493,103.878,157.853,102.916"/>
<path d="M18.31,68.884h8.535c-0.477,1.004-1.069,1.913-1.762,2.703c-0.268,0.32-0.566,0.632-0.921,0.96
	c-0.215,0.202-0.459,0.378-0.709,0.547c-1.499,1.104-3.257,1.741-5.142,1.741c-5.43,0-9.834-5.291-9.834-11.815
	c0-6.532,4.404-11.819,9.834-11.819c3.512,0,6.918,1.831,8.535,5.536h8.168c-0.347-2.527-1.481-4.796-2.682-6.728
	c-0.87-1.305-1.923-2.44-3.136-3.387c-1.467-1.137-3.136-2.011-4.952-2.599c-1.81-0.582-3.707-0.876-5.637-0.876
	c-2.862,0-5.489,0.519-7.794,1.534c-2.306,1.021-4.281,2.45-5.883,4.247c-1.585,1.791-2.815,3.912-3.664,6.308
	C0.432,57.62,0,60.236,0,63.01c0,2.709,0.425,5.277,1.266,7.631c0.839,2.362,2.069,4.451,3.651,6.208
	c1.585,1.76,3.563,3.16,5.871,4.166c2.306,1.001,4.923,1.51,7.789,1.51c1.859,0,3.715-0.387,5.525-1.148
	c1.304-0.548,2.529-1.397,3.668-2.522l-0.002,2.903h7.424v-20.38H18.31V68.884z M142.037,57.228
	c-0.78-1.059-1.798-1.899-3.017-2.494c-1.188-0.575-2.511-0.966-3.931-1.166c-1.378-0.188-2.758-0.282-4.104-0.282
	c-1.492,0-2.998,0.149-4.482,0.444c-1.509,0.307-2.896,0.819-4.109,1.538c-1.242,0.731-2.281,1.72-3.088,2.931
	c-0.815,1.226-1.287,2.771-1.391,4.594l-0.02,0.577h8.752l0.031-0.459c0.113-1.205,0.484-2.054,1.106-2.526
	c0.662-0.506,1.618-0.763,2.851-0.763c0.592,0,1.15,0.042,1.663,0.116c0.447,0.07,0.845,0.211,1.179,0.406
	c0.301,0.18,0.537,0.437,0.721,0.773c0.186,0.337,0.283,0.838,0.283,1.478c0.027,0.69-0.197,0.957-0.377,1.104
	c-0.377,0.313-0.916,0.56-1.605,0.729c-0.766,0.196-1.662,0.342-2.662,0.438c-1.055,0.106-2.136,0.244-3.218,0.417
	c-1.099,0.174-2.203,0.411-3.288,0.704c-1.146,0.311-2.18,0.783-3.064,1.406c-0.92,0.646-1.684,1.512-2.261,2.579
	c-0.579,1.083-0.873,2.441-0.873,4.056c0,1.463,0.253,2.753,0.75,3.835c0.505,1.088,1.214,2,2.114,2.718
	c0.881,0.706,1.923,1.231,3.095,1.563c1.142,0.319,2.382,0.484,3.69,0.484c1.684,0,3.353-0.252,4.966-0.741
	c1.188-0.367,2.272-0.93,3.245-1.688c0.007,0.051,0.031,1.761,0.031,1.761h8.24l-0.017-20.234
	C143.247,59.766,142.842,58.321,142.037,57.228 M126.845,75.525c-0.291-0.176-0.512-0.424-0.682-0.746
	c-0.172-0.314-0.26-0.743-0.26-1.251c0-0.545,0.087-0.982,0.26-1.305c0.179-0.34,0.416-0.619,0.702-0.835
	c0.317-0.235,0.702-0.429,1.131-0.563c0.495-0.165,0.989-0.29,1.487-0.382c0.551-0.099,1.107-0.185,1.654-0.248
	c0.564-0.064,1.131-0.151,1.687-0.261c0.545-0.104,1.25-0.305,1.657-0.449C134.996,76.776,129.401,76.677,126.845,75.525
	 M40.437,81.747h8.768V44.026h-8.768V81.747z M77.859,57.296c-1.248-1.272-2.782-2.271-4.55-2.968
	c-1.753-0.695-3.737-1.044-5.88-1.044c-2.149,0-4.123,0.35-5.86,1.044c-1.749,0.695-3.27,1.692-4.523,2.968
	c-1.252,1.271-2.23,2.826-2.908,4.635c-0.673,1.784-1.013,3.796-1.013,5.979c0,2.18,0.34,4.186,1.013,5.954
	c0.678,1.783,1.655,3.333,2.908,4.604c1.253,1.273,2.776,2.264,4.527,2.942c1.738,0.679,3.706,1.015,5.855,1.015
	c2.143,0,4.118-0.336,5.874-1.01c1.774-0.687,3.299-1.674,4.556-2.947c1.253-1.269,2.228-2.818,2.908-4.604
	c0.673-1.772,1.016-3.777,1.016-5.954c0-2.181-0.342-4.193-1.013-5.979C80.092,60.123,79.114,58.564,77.859,57.296 M72.722,70.837
	c-0.184,0.898-0.499,1.724-0.935,2.436c-0.414,0.679-0.989,1.225-1.691,1.628c-0.698,0.401-1.599,0.608-2.666,0.608
	c-1.069,0-1.95-0.207-2.635-0.604c-0.696-0.407-1.259-0.956-1.673-1.635c-0.438-0.717-0.758-1.535-0.935-2.434
	c-0.19-0.938-0.29-1.917-0.29-2.908c0-0.994,0.1-1.979,0.29-2.938c0.177-0.912,0.495-1.729,0.933-2.424
	c0.416-0.667,0.987-1.221,1.682-1.646c0.683-0.413,1.566-0.621,2.628-0.621c1.063,0,1.958,0.208,2.655,0.623
	c0.725,0.432,1.284,0.973,1.705,1.646c0.434,0.696,0.75,1.51,0.933,2.424c0.194,0.961,0.286,1.949,0.286,2.938
	C73.008,68.914,72.917,69.889,72.722,70.837 M110.157,56.831c-1.104-1.192-2.367-2.092-3.744-2.674
	c-1.377-0.58-2.789-0.873-4.203-0.873c-1.716,0-3.398,0.336-4.994,1.005c-0.976,0.41-1.846,0.974-2.582,1.671V44.024h-8.772v37.729
	h8.379V79.83c0.702,0.696,1.534,1.25,2.507,1.632c1.604,0.639,3.442,0.963,5.459,0.963c1.412,0,2.825-0.288,4.203-0.866
	c1.377-0.585,2.637-1.484,3.741-2.68c1.097-1.178,1.994-2.714,2.666-4.542c0.674-1.817,1.017-4,1.017-6.483
	c0-2.477-0.342-4.653-1.011-6.477C112.146,59.543,111.249,58.018,110.157,56.831 M104.728,70.892
	c-0.22,0.921-0.561,1.737-1.012,2.437c-0.443,0.675-1,1.211-1.651,1.606c-0.631,0.381-1.432,0.574-2.366,0.574
	c-0.906,0-1.696-0.198-2.347-0.578c-0.664-0.394-1.23-0.932-1.668-1.604c-0.454-0.702-0.792-1.518-1.008-2.437
	c-0.222-0.941-0.338-1.938-0.338-2.961c0-1.054,0.116-2.063,0.338-3.017c0.217-0.916,0.554-1.737,1.008-2.432
	c0.443-0.687,0.991-1.21,1.668-1.604c0.658-0.386,1.447-0.577,2.347-0.577c0.935,0,1.735,0.19,2.366,0.572
	c0.662,0.396,1.208,0.925,1.649,1.609c0.454,0.688,0.791,1.514,1.016,2.432c0.217,0.955,0.33,1.97,0.33,3.017
	C105.06,68.948,104.946,69.944,104.728,70.892 M148.083,81.747h8.775V44.026h-8.775V81.747z"/>
<path fill="#E21F26" d="M148.681,1.737V29.12c0,0.114,0.057,0.219,0.146,0.276l35.059,25.265c0.232,0.169,0.418,0.399,0.528,0.671
	c0.021,0.046,0.042,0.092,0.053,0.134c0.002,0.011,0.005,0.024,0.007,0.039c0.039,0.139,0.06,0.286,0.06,0.438
	c0,0.529-0.144,1.167-0.896,1.667l-6.396,4.668c-0.112,0.084-0.223,0.167-0.329,0.248c-0.497,0.372-1.384,1.016-2.422,1.763
	l-6.521,4.759c-0.079,0.058-0.136,0.156-0.136,0.265v6.62c0,0.214,0.004,0.521,0.004,0.974v1.731c0,2.74-0.006,8.064,0,10.069
	c0,0.31,0,0.646-0.004,1.005v4.843c0,0.043,0.004,0.081,0.004,0.118c0,0.048,0,0.098,0,0.141c0.005,0.12,0,0.303-0.004,0.484v0.131
	c0,0.188,0.152,0.337,0.335,0.337c0.071,0,0.144-0.027,0.196-0.063l36.919-26.863c0.087-0.057,0.141-0.158,0.141-0.272V56.946
	c-0.003-5.033-0.003-10.774-0.003-14.282v-0.386c-0.009-0.082-0.047-0.154-0.105-0.208c-0.524-0.38-3.002-2.176-6.396-4.63
	l-27.661-20.02c-4.299-3.107-8.6-6.223-12.9-9.335c-1.267-0.919-2.613-1.894-3.963-2.87l-4.976-3.604
	c-0.078-0.053-0.155-0.105-0.226-0.158c-0.053-0.031-0.119-0.055-0.184-0.055C148.825,1.4,148.681,1.549,148.681,1.737"/>
</svg>
